<svg id="Capa_1" enable-background="new 0 0 512 512" height="512" viewBox="0 0 512 512" width="512" xmlns="http://www.w3.org/2000/svg"><path d="m507 127.832 4.327-18.439c1.764-7.516.026-15.297-4.77-21.348-4.795-6.051-11.973-9.521-19.694-9.521h-367.171l-5.278-22.568c-5.879-25.137-28.015-42.693-53.829-42.693h-45.508c-8.327 0-15.077 6.75-15.077 15.077s6.75 15.077 15.077 15.077h45.507c11.734 0 21.796 7.98 24.468 19.406l15.204 65.009z"/><path d="m107.308 157.985 9.637 41.21h373.31l9.67-41.21z"/><path d="m123.997 229.349 9.638 41.21h339.876l9.669-41.21z"/><path d="m140.687 300.713 6.243 26.696c-18.085 10.169-30.336 29.535-30.336 51.719 0 25.32 15.956 46.973 38.336 55.462-2.664 5.76-4.162 12.165-4.162 18.917 0 24.94 20.29 45.23 45.23 45.23s45.23-20.29 45.23-45.23c0-5.285-.92-10.358-2.593-15.077h131.832c-1.674 4.719-2.593 9.791-2.593 15.077 0 24.94 20.29 45.23 45.23 45.23s45.23-20.29 45.23-45.23-20.29-45.23-45.23-45.23h-237.208c-16.073 0-29.149-13.076-29.149-29.149s13.076-29.149 29.149-29.149h259.065c11.725 0 21.785-7.973 24.464-19.388l7.011-29.878z"/></svg>