<?xml version="1.0" encoding="utf-8"?>
<!-- Generator: Adobe Illustrator 16.0.0, SVG Export Plug-In . SVG Version: 6.00 Build 0)  -->
<!DOCTYPE svg PUBLIC "-//W3C//DTD SVG 1.1//EN" "http://www.w3.org/Graphics/SVG/1.1/DTD/svg11.dtd">
<svg version="1.1" id="Layer_1" xmlns="http://www.w3.org/2000/svg" xmlns:xlink="http://www.w3.org/1999/xlink" x="0px" y="0px"
	 width="595.439px" height="841.891px" viewBox="0 0 595.439 841.891" enable-background="new 0 0 595.439 841.891"
	 xml:space="preserve">
<path fill="#F9082B" d="M571.425,466.351c-9.446-13.058-13.825-29.005-13.807-45.122c0.001-0.094,0.001-0.187,0.001-0.282
	c0-143.537-116.36-259.898-259.897-259.898c-31.4,0-61.488,5.589-89.35,15.802c-15.072,5.524-31.584,6.586-47.037,2.233
	c-13.649-3.845-28.23-5.467-43.336-4.427C54.546,179.023,3.463,231.025,0.175,294.543c-1.569,30.317,7.522,58.441,23.841,80.998
	c9.447,13.057,13.825,29.004,13.807,45.122c0,0.094,0,0.187,0,0.282c0,143.537,116.358,259.898,259.897,259.898
	c31.401,0,61.489-5.589,89.349-15.803c15.073-5.524,31.585-6.586,47.038-2.233c13.649,3.845,28.229,5.467,43.336,4.427
	c63.453-4.366,114.534-56.366,117.823-119.883C596.836,517.033,587.744,488.908,571.425,466.351z M307.236,374.352
	c52.404,12.462,131.595,31.294,131.595,118.523c0,42.971-21.161,75.751-59.59,92.3c-27.421,11.81-58.456,13.403-85.199,13.403
	c-82.182,0-134.087-63.902-136.257-66.623c-13.458-16.88-10.688-41.478,6.193-54.936c16.877-13.464,41.474-10.688,54.935,6.188
	c0.121,0.145,31.161,35.794,75.129,37.188c52.945,1.68,65.042-14.073,66.605-27.521c1.911-16.422-12.697-28.479-71.503-42.463
	c-49.845-11.854-125.179-29.768-125.179-110.104c0-25.018,10.175-106.644,141.108-106.644c82.674,0,131.475,65.092,133.512,67.863
	c12.787,17.396,9.054,41.865-8.342,54.65c-17.319,12.73-41.634,9.087-54.471-8.097c-0.921-1.184-28.854-32.262-70.699-36.234
	c-31.663-3.007-62.926,8.41-62.926,25.277C242.148,354.996,251.125,361.008,307.236,374.352z"/>
</svg>
