<?xml version="1.0" encoding="utf-8"?>
<!-- Generator: Adobe Illustrator 16.0.0, SVG Export Plug-In . SVG Version: 6.00 Build 0)  -->
<!DOCTYPE svg PUBLIC "-//W3C//DTD SVG 1.1//EN" "http://www.w3.org/Graphics/SVG/1.1/DTD/svg11.dtd">
<svg version="1.1" id="Layer_1" xmlns="http://www.w3.org/2000/svg" xmlns:xlink="http://www.w3.org/1999/xlink" x="0px" y="0px"
	 width="595.439px" height="841.891px" viewBox="0 0 595.439 841.891" enable-background="new 0 0 595.439 841.891"
	 xml:space="preserve">
<path fill="#F40F3B" d="M597.971,244.915c-13.23,5.867-26.964,10.495-41.056,13.846c15.527-14.756,27.202-33.212,33.789-53.812l0,0
	c1.88-5.881-4.508-10.966-9.818-7.818l0,0c-19.604,11.629-40.721,20.352-62.766,25.931c-1.279,0.324-2.599,0.488-3.923,0.488
	c-4.016,0-7.919-1.491-10.99-4.197c-23.454-20.671-53.62-32.056-84.938-32.056c-13.552,0-27.234,2.112-40.669,6.279
	c-41.624,12.911-73.741,47.246-83.817,89.607c-3.78,15.89-4.804,31.793-3.045,47.269c0.202,1.778-0.639,3.02-1.156,3.602
	c-0.911,1.021-2.201,1.606-3.541,1.606c-0.149,0-0.304-0.007-0.456-0.022c-91.114-8.465-173.277-52.361-231.354-123.602l0,0
	c-2.962-3.634-8.641-3.188-11.001,0.861l0,0c-11.373,19.512-17.384,41.828-17.384,64.536c0,34.801,13.982,67.597,38.269,91.506
	c-10.213-2.422-20.099-6.235-29.28-11.336l0,0c-4.442-2.467-9.908,0.705-9.971,5.785l0,0c-0.636,51.7,29.633,97.703,74.977,118.418
	c-0.913,0.021-1.826,0.032-2.741,0.032c-7.188,0-14.465-0.694-21.628-2.063l0,0c-5.002-0.955-9.205,3.791-7.651,8.641l0,0
	c14.718,45.949,54.28,79.818,101.625,87.509c-39.293,26.377-85.051,40.29-132.676,40.29l-14.847-0.009
	c-4.574,0-8.443,2.982-9.609,7.413c-1.148,4.363,0.967,8.967,4.868,11.236c53.665,31.231,114.878,47.737,177.048,47.737
	c54.418,0,105.322-10.799,151.299-32.097c42.148-19.524,79.395-47.434,110.703-82.954c29.165-33.088,51.972-71.285,67.784-113.527
	c15.074-40.268,23.041-83.233,23.041-124.253v-1.954c-0.002-6.587,2.978-12.784,8.175-17.003
	c19.722-16.013,36.896-34.862,51.043-56.024l0,0C610.008,249.192,604.117,242.189,597.971,244.915L597.971,244.915z"/>
</svg>
